<?xml version="1.0" encoding="UTF-8"?>
<svg id="Layer_1" data-name="Layer 1" xmlns="http://www.w3.org/2000/svg" viewBox="0 0 184.3 75">
  <defs>
    <style>
      .cls-1 {
        fill: #fff;
      }

      .cls-2 {
        fill: #1e1b4b;
      }
    </style>
  </defs>
  <rect class="cls-2" width="184.3" height="75" rx="15" ry="15"/>
  <g>
    <path class="cls-1" d="M44.09,33.22c-.02-1.24-.33-2.22-.93-2.94-.6-.72-1.62-1.08-3.06-1.08-1,0-1.92.18-2.76.54-.84.36-1.74.94-2.7,1.74-.96.76-1.78,1.63-2.46,2.61-.68.98-1.18,2.25-1.5,3.81l-3.78,18.06h-6.24l6.54-31.14h6.18l-.96,4.44c1.64-1.96,3.29-3.35,4.95-4.17,1.66-.82,3.29-1.23,4.89-1.23,2.04,0,3.72.48,5.04,1.44,1.32.96,2.22,2.4,2.7,4.32,1.92-2.16,3.82-3.66,5.7-4.5,1.88-.84,3.7-1.26,5.46-1.26,3.52,0,5.92,1.16,7.2,3.48,1.28,2.32,1.52,5.44.72,9.36l-4.08,19.26h-6.24l3.96-18.6c.36-1.6.52-3.01.48-4.23-.04-1.22-.38-2.18-1.02-2.88-.64-.7-1.68-1.05-3.12-1.05-.96,0-1.9.17-2.82.51-.92.34-1.88.91-2.88,1.71-.88.72-1.59,1.49-2.13,2.31-.54.82-.95,1.89-1.23,3.21l-4.08,19.02h-6.3l3.96-18.48c.36-1.6.53-3.02.51-4.26Z"/>
    <path class="cls-1" d="M73.94,48.1h6.84l-1.68,7.86h-6.78l1.62-7.86Z"/>
    <path class="cls-1" d="M88.55,44.74c-.06-2.08.09-4.02.45-5.82.52-2.52,1.44-4.93,2.76-7.23,1.32-2.3,3.06-4.18,5.22-5.64,2.16-1.46,4.74-2.19,7.74-2.19,2.16,0,4.07.47,5.73,1.41,1.66.94,2.97,2.29,3.93,4.05l3.42-16.2h6.3l-9.12,42.84h-6.12l.84-4.38c-1.36,1.8-2.85,3.14-4.47,4.02-1.62.88-3.53,1.32-5.73,1.32-2.64,0-4.74-.58-6.3-1.74-1.56-1.16-2.71-2.67-3.45-4.53-.74-1.86-1.14-3.83-1.2-5.91ZM95.48,39.28c-.28,1.4-.43,2.83-.45,4.29-.02,1.46.19,2.8.63,4.02.44,1.22,1.14,2.21,2.1,2.97s2.24,1.14,3.84,1.14c1.72,0,3.28-.45,4.68-1.35,1.4-.9,2.59-2.1,3.57-3.6s1.65-3.13,2.01-4.89l.48-2.34c.4-1.84.45-3.55.15-5.13-.3-1.58-1.02-2.87-2.16-3.87-1.14-1-2.77-1.5-4.89-1.5-1.92,0-3.56.5-4.92,1.5-1.36,1-2.45,2.28-3.27,3.84-.82,1.56-1.41,3.2-1.77,4.92Z"/>
    <path class="cls-1" d="M124.04,48.1h6.84l-1.68,7.86h-6.78l1.62-7.86Z"/>
    <path class="cls-1" d="M140.35,25.06h4.98l.6-2.82c.72-3.4,1.99-5.85,3.81-7.35,1.82-1.5,4.15-2.25,6.99-2.25,1.28,0,2.43.12,3.45.36,1.02.24,1.85.52,2.49.84l-1.74,4.5c-.48-.2-1.01-.37-1.59-.51-.58-.14-1.27-.21-2.07-.21-1.48,0-2.62.4-3.42,1.2-.8.8-1.38,2.02-1.74,3.66l-.54,2.58h7.62l-1.02,4.98h-7.68l-5.46,25.92h-6.3l5.52-25.92h-4.92l1.02-4.98Z"/>
  </g>
</svg>