<?xml version="1.0" encoding="UTF-8"?>
<svg id="Layer_1" data-name="Layer 1" xmlns="http://www.w3.org/2000/svg" viewBox="0 0 48 48">
  <defs>
    <style>
      .cls-1 {
        fill: #fff;
      }

      .cls-2 {
        fill: #1e1b4b;
      }
    </style>
  </defs>
  <rect class="cls-2" x="0" width="48" height="48" rx="8" ry="8"/>
  <g>
    <path class="cls-1" d="M20.76,20.24c-.01-.81-.21-1.44-.6-1.91-.39-.47-1.05-.7-1.99-.7-.65,0-1.25.12-1.79.35-.55.23-1.13.61-1.76,1.13-.62.49-1.16,1.06-1.6,1.7-.44.64-.77,1.46-.98,2.48l-2.46,11.74h-4.06l4.25-20.24h4.02l-.62,2.89c1.07-1.27,2.14-2.18,3.22-2.71,1.08-.53,2.14-.8,3.18-.8,1.33,0,2.42.31,3.28.94.86.62,1.44,1.56,1.75,2.81,1.25-1.4,2.48-2.38,3.71-2.92,1.22-.55,2.4-.82,3.55-.82,2.29,0,3.85.75,4.68,2.26.83,1.51.99,3.54.47,6.08l-2.65,12.52h-4.06l2.57-12.09c.23-1.04.34-1.96.31-2.75-.03-.79-.25-1.42-.66-1.87-.42-.45-1.09-.68-2.03-.68-.62,0-1.24.11-1.83.33-.6.22-1.22.59-1.87,1.11-.57.47-1.03.97-1.38,1.5-.35.53-.62,1.23-.8,2.09l-2.65,12.36h-4.09l2.57-12.01c.23-1.04.34-1.96.33-2.77Z"/>
    <path class="cls-1" d="M40.16,29.91h4.45l-1.09,5.11h-4.41l1.05-5.11Z"/>
  </g>
</svg>